<?xml version="1.0" encoding="UTF-8"?>
<svg xmlns="http://www.w3.org/2000/svg" xmlns:xlink="http://www.w3.org/1999/xlink" width="512pt" height="512pt" viewBox="0 0 512 512" version="1.1">
<g id="surface1">
<path style=" stroke:none;fill-rule:nonzero;fill:rgb(100%,100%,100%);fill-opacity:1;" d="M 137.710938 18.324219 L 17.867188 138.164062 L 47.449219 167.746094 C 70.488281 114.050781 113.589844 70.945312 167.289062 47.90625 L 137.707031 18.324219 Z M 375.996094 18.367188 L 346.441406 47.921875 C 400.132812 70.96875 443.230469 114.074219 466.261719 167.777344 L 495.839844 138.203125 L 375.996094 18.363281 Z M 242.726562 55.40625 C 137.40625 62.640625 54.449219 150.125 54.449219 257.308594 C 54.449219 369.238281 144.914062 459.707031 256.847656 459.707031 C 289.597656 459.707031 320.507812 451.949219 347.851562 438.1875 L 325.59375 422.40625 C 304.421875 431.246094 281.199219 436.140625 256.847656 436.140625 C 158.195312 436.140625 78.019531 355.96875 78.019531 257.316406 C 78.019531 166.375 146.152344 91.140625 234.085938 79.933594 L 242.722656 55.40625 Z M 272.15625 55.480469 L 280.714844 80.085938 C 368.109375 91.777344 435.671875 166.757812 435.671875 257.316406 C 435.671875 305.550781 416.503906 349.359375 385.382812 381.546875 L 394.015625 406.230469 C 434.136719 369.269531 459.246094 316.273438 459.246094 257.308594 C 459.246094 150.527344 376.914062 63.285156 272.15625 55.480469 Z M 257.40625 69.972656 L 225.109375 161.679688 L 244.03125 161.679688 L 244.03125 206.746094 C 248.382812 205.5625 252.949219 204.921875 257.664062 204.921875 C 262.023438 204.921875 266.257812 205.46875 270.3125 206.484375 L 270.3125 161.679688 L 289.292969 161.679688 L 257.40625 69.96875 Z M 329.226562 114.390625 L 312.03125 144.183594 C 308.585938 142.523438 305.046875 141.023438 301.433594 139.683594 L 315.578125 180.363281 L 289.003906 180.363281 L 289.003906 215.421875 C 301.703125 224.984375 309.953125 240.179688 309.953125 257.214844 C 309.953125 265.910156 307.792969 274.125 303.996094 281.355469 L 344.703125 335.542969 L 364.167969 320.882812 L 369.09375 334.960938 L 389.695312 346.859375 C 393.171875 341.703125 396.351562 336.335938 399.222656 330.777344 L 369.871094 313.832031 C 376.839844 299.992188 381.316406 284.679688 382.730469 268.484375 L 416.59375 268.484375 C 416.847656 264.796875 416.984375 261.074219 416.984375 257.316406 C 416.984375 254.796875 416.917969 252.289062 416.804688 249.796875 L 382.984375 249.796875 C 382.003906 233.375 377.875 217.804688 371.1875 203.683594 L 400.640625 186.683594 C 397.878906 181.066406 394.804688 175.636719 391.429688 170.417969 L 361.949219 187.4375 C 352.980469 174.085938 341.515625 162.558594 328.222656 153.515625 L 345.375 123.804688 C 340.195312 120.367188 334.808594 117.21875 329.230469 114.394531 Z M 183.847656 114.703125 C 178.28125 117.554688 172.90625 120.726562 167.742188 124.1875 L 185.363281 154.710938 C 172.472656 163.800781 161.375 175.257812 152.695312 188.449219 L 122.050781 170.753906 C 118.6875 175.980469 115.628906 181.421875 112.882812 187.042969 L 143.613281 204.78125 C 137.226562 218.609375 133.28125 233.800781 132.328125 249.796875 L 96.894531 249.796875 C 96.78125 252.289062 96.714844 254.796875 96.714844 257.316406 C 96.714844 261.074219 96.851562 264.796875 97.105469 268.484375 L 132.582031 268.484375 C 133.960938 284.261719 138.246094 299.191406 144.90625 312.75 L 114.292969 330.421875 C 117.148438 335.988281 120.320312 341.359375 123.785156 346.523438 L 154.378906 328.859375 C 163.121094 341.480469 174.121094 352.421875 186.796875 361.097656 L 169.269531 391.449219 C 174.46875 394.847656 179.882812 397.953125 185.484375 400.742188 L 202.957031 370.476562 C 216.492188 377.03125 231.386719 381.222656 247.105469 382.527344 L 247.105469 417.148438 C 250.328125 417.339844 253.574219 417.449219 256.851562 417.449219 C 259.851562 417.449219 262.828125 417.359375 265.789062 417.199219 L 265.789062 382.703125 C 272.386719 382.28125 278.839844 381.34375 285.113281 379.945312 L 295.796875 371.898438 L 248.277344 308.640625 C 223.949219 304.1875 205.367188 282.78125 205.367188 257.214844 C 205.367188 240.621094 213.203125 225.785156 225.34375 216.1875 L 225.34375 180.363281 L 198.714844 180.363281 L 212.910156 140.054688 C 208.976562 141.554688 205.132812 143.238281 201.402344 145.109375 Z M 257.660156 223.609375 C 238.992188 223.609375 224.058594 238.546875 224.058594 257.214844 C 224.058594 275.886719 238.992188 290.820312 257.660156 290.820312 C 276.332031 290.820312 291.265625 275.886719 291.265625 257.214844 C 291.265625 238.546875 276.332031 223.613281 257.660156 223.613281 Z M 292.023438 296.539062 C 286.046875 301.773438 278.882812 305.679688 270.996094 307.769531 L 321.945312 375.597656 L 307.367188 386.582031 L 387.109375 443.109375 L 354.972656 351.207031 L 340.996094 361.730469 Z M 466.246094 346.867188 C 452.046875 379.96875 430.210938 409.035156 402.976562 431.867188 L 412.679688 459.597656 L 495.828125 376.449219 Z M 47.460938 346.898438 L 17.875 376.484375 L 137.714844 496.324219 L 167.316406 466.722656 C 113.617188 443.691406 70.507812 400.59375 47.460938 346.898438 Z M 370.804688 454.453125 C 362.953125 459.003906 354.8125 463.101562 346.40625 466.707031 L 375.988281 496.285156 L 398.316406 473.957031 Z M 370.804688 454.453125 "/>
</g>
</svg>
