<?xml version="1.0" encoding="UTF-8"?>
<svg xmlns="http://www.w3.org/2000/svg" xmlns:xlink="http://www.w3.org/1999/xlink" width="512pt" height="512pt" viewBox="0 0 512 512" version="1.1">
<g id="surface11">
<path style=" stroke:none;fill-rule:nonzero;fill:rgb(100%,100%,100%);fill-opacity:1;" d="M 250.882812 22.800781 C 227.515625 25.835938 206.328125 53.246094 206.328125 88.738281 C 206.328125 108.296875 213.101562 125.59375 223.023438 137.550781 L 234.863281 151.816406 L 216.648438 155.238281 C 203.746094 157.664062 194.289062 164.480469 186.203125 175.574219 C 178.117188 186.671875 171.9375 202.132812 167.605469 219.949219 C 159.761719 252.230469 158.039062 291.644531 157.765625 326.386719 L 200.632812 326.386719 L 212.402344 484.222656 C 242.296875 490.96875 274.214844 490.730469 303.003906 484.246094 L 313.417969 326.386719 L 354.234375 326.386719 C 354.207031 291.21875 353.757812 251.261719 346.652344 218.738281 C 342.734375 200.804688 336.792969 185.363281 328.609375 174.394531 C 320.425781 163.425781 310.53125 156.648438 296.046875 154.40625 L 277.457031 151.523438 L 289.191406 136.820312 C 298.6875 124.925781 305.125 107.824219 305.125 88.738281 C 305.125 50.902344 281.46875 22.894531 255.726562 22.894531 Z M 250.882812 22.800781 "/>
</g>
</svg>
