<?xml version="1.0" encoding="UTF-8"?>
<svg xmlns="http://www.w3.org/2000/svg" xmlns:xlink="http://www.w3.org/1999/xlink" width="512pt" height="512pt" viewBox="0 0 512 512" version="1.1">
<g id="surface16">
<path style=" stroke:none;fill-rule:nonzero;fill:rgb(100%,100%,100%);fill-opacity:1;" d="M 256 46 C 210.925781 46 174 82.925781 174 128 C 174 153.8125 186.121094 176.9375 204.9375 192 L 128 192 L 32 480 L 480 480 L 384 192 L 307.0625 192 C 325.878906 176.9375 338 153.8125 338 128 C 338 82.925781 301.074219 46 256 46 Z M 256 82 C 281.617188 82 302 102.382812 302 128 C 302 153.617188 281.617188 174 256 174 C 230.382812 174 210 153.617188 210 128 C 210 102.382812 230.382812 82 256 82 Z M 173.785156 284.949219 L 197.285156 284.949219 L 197.285156 318.214844 L 231.15625 284.949219 L 258.441406 284.949219 L 214.558594 328.097656 L 262.957031 376.074219 L 233.539062 376.074219 L 197.285156 340.183594 L 197.285156 376.074219 L 173.785156 376.074219 Z M 293.71875 306.191406 C 298.480469 306.191406 302.671875 307.125 306.292969 308.996094 C 309.910156 310.867188 313.230469 313.816406 316.242188 317.847656 L 316.242188 307.714844 L 338.214844 307.714844 L 338.214844 369.179688 C 338.214844 380.164062 334.734375 388.546875 327.777344 394.324219 C 320.859375 400.144531 310.808594 403.050781 297.625 403.050781 C 293.351562 403.050781 289.222656 402.726562 285.234375 402.074219 C 281.246094 401.425781 277.238281 400.429688 273.210938 399.085938 L 273.210938 382.054688 C 277.035156 384.253906 280.78125 385.882812 284.441406 386.9375 C 288.105469 388.035156 291.785156 388.585938 295.488281 388.585938 C 302.652344 388.585938 307.898438 387.019531 311.234375 383.886719 C 314.574219 380.753906 316.242188 375.851562 316.242188 369.179688 L 316.242188 364.480469 C 313.230469 368.464844 309.914062 371.394531 306.292969 373.265625 C 302.671875 375.136719 298.480469 376.074219 293.71875 376.074219 C 285.375 376.074219 278.480469 372.800781 273.027344 366.25 C 267.574219 359.65625 264.847656 351.273438 264.847656 341.101562 C 264.847656 330.890625 267.574219 322.527344 273.027344 316.015625 C 278.480469 309.46875 285.375 306.191406 293.71875 306.191406 Z M 301.835938 321.9375 C 297.320312 321.9375 293.800781 323.605469 291.277344 326.941406 C 288.753906 330.277344 287.492188 335 287.492188 341.101562 C 287.492188 347.367188 288.714844 352.128906 291.15625 355.382812 C 293.597656 358.597656 297.15625 360.207031 301.835938 360.207031 C 306.394531 360.207031 309.933594 358.535156 312.457031 355.199219 C 314.980469 351.863281 316.242188 347.164062 316.242188 341.101562 C 316.242188 334.996094 314.980469 330.277344 312.457031 326.941406 C 309.933594 323.605469 306.394531 321.9375 301.835938 321.9375 Z M 301.835938 321.9375 "/>
</g>
</svg>
